Coordinates
version=1
nRows=19
nColumns=24
inDegrees=yes

Units are S.I. units (second, meters, Newtons, ...)
Angles are in degrees.

endheader
time	pelvis_tilt	pelvis_list	pelvis_rotation	pelvis_tx	pelvis_ty	pelvis_tz	hip_flexion_r	hip_adduction_r	hip_rotation_r	knee_angle_r	ankle_angle_r	subtalar_angle_r	mtp_angle_r	hip_flexion_l	hip_adduction_l	hip_rotation_l	knee_angle_l	ankle_angle_l	subtalar_angle_l	mtp_angle_l	lumbar_extension	lumbar_bending	lumbar_rotation
      4.70000000	    -10.31192603	      5.00594473	     -3.46018439	     -1.11192886	     -0.01701511	     -0.64897362	     15.63126378	     -7.00695845	     -3.05308175	    -57.16488695	    -12.42987114	    -13.47129162	      0.49239733	     26.05000891	      5.89020619	    -14.78895353	    -21.84794812	      1.71373066	    -10.54359006	      2.22755622	      7.98541036	     -4.92715938	      1.95877452
      4.70500000	    -10.32800348	      4.96814596	     -3.40878844	     -1.10705677	     -0.01634143	     -0.64960840	     16.49108634	     -6.99952955	     -3.05871997	    -58.15727080	    -12.22348473	    -14.26095012	     -0.00973790	     25.58913636	      5.99662426	    -14.61457379	    -21.57246969	      1.89169841	    -10.58307966	      2.13275411	      7.96773704	     -4.86926636	      1.72628211
      4.71000000	    -10.43710520	      4.92227517	     -3.27538802	     -1.10225918	     -0.01584234	     -0.65033604	     17.45098074	     -7.01501946	     -3.17215866	    -59.15318184	    -11.73804903	    -14.75903623	     -1.16589727	     25.26726579	      6.11022949	    -14.41915260	    -21.36931000	      2.16300990	    -10.53196336	      1.82426087	      8.03375254	     -4.81117243	      1.43469328
      4.71500000	    -10.40403872	      4.88196121	     -3.21506056	     -1.09741252	     -0.01510609	     -0.65095786	     18.22832327	     -7.01609450	     -3.20888512	    -59.97081993	    -11.51374027	    -15.44533346	     -1.33680006	     24.73831336	      6.21625974	    -14.28234432	    -21.06062800	      2.31406742	    -10.56069523	      1.76101528	      7.96370414	     -4.75356335	      1.21695822
      4.72000000	    -10.50209280	      4.79634619	     -3.11871384	     -1.09263250	     -0.01452061	     -0.65163259	     19.15114314	     -6.96770485	     -3.28145722	    -60.74947304	    -11.25118311	    -15.99754035	     -1.71390468	     24.36462697	      6.28537613	    -14.02632819	    -20.78205912	      2.50595339	    -10.60038400	      1.57912978	      8.02692174	     -4.63934941	      0.99070092
      4.72500000	    -10.57017930	      4.74325484	     -3.01665103	     -1.08785836	     -0.01391667	     -0.65229452	     20.02949330	     -6.96001122	     -3.35356915	    -61.45764453	    -10.89017480	    -16.42317828	     -2.06057030	     23.95122456	      6.38477529	    -13.83351570	    -20.48420027	      2.70217649	    -10.58747261	      1.33799789	      8.06136540	     -4.56703215	      0.75675086
      4.73000000	    -10.54143495	      4.69394620	     -2.92320174	     -1.08301035	     -0.01319231	     -0.65293618	     20.76227677	     -6.96537062	     -3.42501357	    -62.04157332	    -10.50643736	    -16.75224876	     -2.05231158	     23.40103407	      6.48465800	    -13.69759588	    -20.13288186	      2.89080156	    -10.50633376	      1.31399115	      8.00691039	     -4.50112758	      0.55038096
      4.73500000	    -10.58976248	      4.63661245	     -2.81874648	     -1.07824399	     -0.01254976	     -0.65355453	     21.58067037	     -6.94544564	     -3.49177872	    -62.56748812	    -10.10428138	    -17.05477014	     -2.06708397	     22.94719415	      6.57068972	    -13.54405124	    -19.79377834	      3.03833325	    -10.47140511	      1.18322445	      8.02525779	     -4.42744675	      0.30955989
      4.74000000	    -10.56718024	      4.55971732	     -2.75485455	     -1.07341667	     -0.01179659	     -0.65411340	     22.29453481	     -6.88840444	     -3.52671664	    -62.98178469	     -9.70039331	    -17.27879307	     -1.98777133	     22.38128819	      6.62496511	    -13.38776974	    -19.40585433	      3.20795086	    -10.38021282	      1.17945364	      7.98385347	     -4.32675252	      0.14667716
      4.74500000	    -10.56079578	      4.50718366	     -2.66523117	     -1.06859171	     -0.01108512	     -0.65468694	     23.01162838	     -6.86971345	     -3.59159248	    -63.32814190	     -9.24267874	    -17.44398409	     -1.86142780	     21.83134483	      6.70746628	    -13.26261575	    -19.00607301	      3.36185421	    -10.27106932	      1.16282807	      7.96214769	     -4.25757676	     -0.04615816
      4.75000000	    -10.56002411	      4.46405583	     -2.55213440	     -1.06377063	     -0.01041678	     -0.65533396	     23.71567164	     -6.87664036	     -3.66276361	    -63.60452533	     -8.70385290	    -17.45550454	     -1.60972797	     21.28778220	      6.80854283	    -13.16265498	    -18.60020077	      3.52956645	    -10.16763823	      1.11356225	      7.94132995	     -4.19276897	     -0.25574050
      4.75500000	    -10.53045230	      4.41076612	     -2.46720049	     -1.05893617	     -0.00969607	     -0.65590535	     24.36672675	     -6.85218877	     -3.70850242	    -63.78273533	     -8.16349607	    -17.44430243	     -1.28342232	     20.69589091	      6.88750410	    -13.05059679	    -18.17027006	      3.68471868	    -10.04434727	      1.07013613	      7.90156430	     -4.11948394	     -0.43495814
      4.76000000	    -10.47416441	      4.35632225	     -2.37956833	     -1.05408420	     -0.00894647	     -0.65646940	     24.96041209	     -6.82486126	     -3.75095558	    -63.86689622	     -7.60999620	    -17.38896112	     -0.85871925	     20.06418876	      6.96428030	    -12.95289081	    -17.72097593	      3.83304848	     -9.90066159	      1.03814545	      7.83280500	     -4.04530965	     -0.61563018
      4.76500000	    -10.37676708	      4.28972647	     -2.30499894	     -1.04921110	     -0.00813042	     -0.65698210	     25.47550750	     -6.77566737	     -3.78504790	    -63.84101024	     -7.06194178	    -17.30538327	     -0.24682877	     19.38013833	      7.01966444	    -12.89026556	    -17.25866300	      3.94453528	     -9.75621137	      1.00051295	      7.72991328	     -3.95963610	     -0.81381802
      4.77000000	    -10.27793637	      4.22443976	     -2.21957973	     -1.04433471	     -0.00734660	     -0.65752713	     25.97048078	     -6.73444301	     -3.83528497	    -63.73798179	     -6.56520258	    -17.25947295	      0.39329959	     18.68536186	      7.08223031	    -12.79747411	    -16.77967189	      4.07906121	     -9.59888004	      1.00482466	      7.61964596	     -3.87317074	     -0.98413671
      4.77500000	    -10.17377834	      4.15154889	     -2.14478740	     -1.03945659	     -0.00658234	     -0.65803845	     26.44160386	     -6.67989104	     -3.89081440	    -63.55857094	     -6.08394896	    -17.21720508	      1.00073148	     17.98427460	      7.12916451	    -12.70711890	    -16.30135448	      4.20435279	     -9.44689479	      1.03339314	      7.51001045	     -3.77790441	     -1.14504984
      4.78000000	    -10.01208331	      4.06649139	     -2.11187406	     -1.03456351	     -0.00574273	     -0.65850609	     26.82281345	     -6.59198805	     -3.91696107	    -63.24964584	     -5.80848792	    -17.38579792	      2.11285876	     17.19768374	      7.15817622	    -12.61538276	    -15.77834429	      4.29562306	     -9.34749551	      1.08995430	      7.34010462	     -3.66179817	     -1.25096648
      4.78500000	     -9.99672870	      4.00191569	     -1.99959962	     -1.02970751	     -0.00517922	     -0.65903318	     27.36399666	     -6.56139845	     -4.02050208	    -62.96789756	     -5.30754882	    -17.29874642	      2.34281825	     16.61300906	      7.20892031	    -12.50997611	    -15.33397927	      4.44197469	     -9.16576066	      1.13979857	      7.32455124	     -3.57929818	     -1.43575166
      4.79000000	     -9.88943356	      3.92091518	     -1.91330474	     -1.02481726	     -0.00451361	     -0.65953760	     27.76501602	     -6.50364935	     -4.10556320	    -62.57541674	     -4.84180137	    -17.22767224	      2.63191255	     15.90663320	      7.24136983	    -12.41372678	    -14.85277519	      4.57246485	     -8.99738679	      1.18591977	      7.21236735	     -3.47505311	     -1.59822532
